<svg width="800" height="800" viewBox="0 0 800 800" fill="none" xmlns="http://www.w3.org/2000/svg">
<rect width="800" height="800" fill="white"/>
<path d="M179.735 315.056L155.372 243.249C153.452 237.591 159.46 232.51 164.721 235.343L208.8 259.077C211.819 260.703 215.58 259.738 217.442 256.859L244.539 214.983C247.197 210.874 253.252 211.003 255.733 215.221L280.012 256.495C281.805 259.544 285.687 260.629 288.801 258.952L332.296 235.532C337.602 232.675 343.638 237.862 341.611 243.537L316.033 315.155C315.098 317.773 312.618 319.521 309.837 319.521H185.965C183.146 319.521 180.641 317.725 179.735 315.056Z" fill="url(#paint0_linear_380_5964)"/>
<path d="M289.798 342.547L169.732 534.982M248.683 475.771H317.762M423.024 334.324L546.379 594.192L649.998 334.324M465.791 334.324L566.12 544.85M541.444 331.034L508.549 423.14M339.14 594.193H169.732V337.614H332.561L446.048 594.193L487.167 479.061M329.272 344.193L176.311 589.258" stroke="white" stroke-width="16.4474" stroke-linecap="round" stroke-linejoin="round"/>
<path d="M289.798 342.547L169.732 534.982M248.683 475.771H317.762M423.024 334.324L546.379 594.192L649.998 334.324M465.791 334.324L566.12 544.85M541.444 331.034L508.549 423.14M339.14 594.193H169.732V337.614H332.561L446.048 594.193L487.167 479.061M329.272 344.193L176.311 589.258" stroke="url(#paint1_linear_380_5964)" stroke-width="16.4474" stroke-linecap="round" stroke-linejoin="round"/>
<defs>
<linearGradient id="paint0_linear_380_5964" x1="150" y1="206.034" x2="248.082" y2="376.611" gradientUnits="userSpaceOnUse">
<stop stop-color="#FCCF31"/>
<stop offset="1" stop-color="#F55555"/>
</linearGradient>
<linearGradient id="paint1_linear_380_5964" x1="169.732" y1="331.034" x2="391.531" y2="735.818" gradientUnits="userSpaceOnUse">
<stop stop-color="#FCCF31"/>
<stop offset="1" stop-color="#F55555"/>
</linearGradient>
</defs>
</svg>
